<svg xmlns="http://www.w3.org/2000/svg" width="1200" height="420" viewBox="0 0 1200 420" fill="none">
<rect width="1200" height="420" rx="18" fill="#0b1220" stroke="#1e293b" stroke-width="2"/>
<text x="24" y="40" fill="#e2e8f0" font-size="20" font-family="system-ui,Segoe UI,Roboto">Azure Automation (Runbooks) + Azure Update Manager</text>
<defs><marker id="arrow" markerWidth="10" markerHeight="10" refX="6" refY="3" orient="auto" markerUnits="strokeWidth"><path d="M0,0 L0,6 L7,3 z" fill="#60a5fa"/></marker></defs>
<path d="M168.0 180 C 276.0 180, 276.0 180, 384.0 180" stroke="#60a5fa" stroke-width="3" fill="none" marker-end="url(#arrow)" opacity="0.8"/>
<path d="M384.0 180 C 492.0 180, 492.0 180, 600.0 180" stroke="#60a5fa" stroke-width="3" fill="none" marker-end="url(#arrow)" opacity="0.8"/>
<path d="M600.0 180 C 816.0 180, 816.0 180, 1032.0 180" stroke="#60a5fa" stroke-width="3" fill="none" marker-end="url(#arrow)" opacity="0.8"/>
<path d="M816.0 180 C 924.0 180, 924.0 180, 1032.0 180" stroke="#60a5fa" stroke-width="3" fill="none" marker-end="url(#arrow)" opacity="0.8"/>
<rect x="83.0" y="144.0" width="170" height="72" rx="14" fill="#0f172a" stroke="#1e293b" stroke-width="2"/>
<text x="168.0" y="180" text-anchor="middle" fill="#94a3b8" font-size="14" font-family="system-ui,Segoe UI,Roboto">Schedules</text>
<rect x="299.0" y="144.0" width="170" height="72" rx="14" fill="#0f172a" stroke="#1e293b" stroke-width="2"/>
<text x="384.0" y="180" text-anchor="middle" fill="#94a3b8" font-size="14" font-family="system-ui,Segoe UI,Roboto">Azure Automation</text>
<rect x="515.0" y="144.0" width="170" height="72" rx="14" fill="#0f172a" stroke="#1e293b" stroke-width="2"/>
<text x="600.0" y="180" text-anchor="middle" fill="#94a3b8" font-size="14" font-family="system-ui,Segoe UI,Roboto">Runbooks</text>
<rect x="731.0" y="144.0" width="170" height="72" rx="14" fill="#0f172a" stroke="#1e293b" stroke-width="2"/>
<text x="816.0" y="174" text-anchor="middle" fill="#94a3b8" font-size="14" font-family="system-ui,Segoe UI,Roboto">Azure Update</text>
<text x="816.0" y="190" text-anchor="middle" fill="#94a3b8" font-size="14" font-family="system-ui,Segoe UI,Roboto">Manager</text>
<rect x="947.0" y="144.0" width="170" height="72" rx="14" fill="#0f172a" stroke="#1e293b" stroke-width="2"/>
<text x="1032.0" y="180" text-anchor="middle" fill="#94a3b8" font-size="14" font-family="system-ui,Segoe UI,Roboto">VMs</text>
</svg>