<svg xmlns="http://www.w3.org/2000/svg" width="1200" height="700" viewBox="0 0 1200 700">
<rect x="0" y="0" width="1200" height="700" fill="#0b1220"/>
<defs>
<marker id="arrow" markerWidth="10" markerHeight="10" refX="9" refY="3" orient="auto" markerUnits="strokeWidth"><path d="M0,0 L10,3 L0,6 Z" fill="#60a5fa" /></marker>
</defs>
<rect x="40" y="40" width="1120" height="64" rx="14" fill="#0f172a" stroke="#1e293b"/>
<text x="58" y="80" fill="#e2e8f0" font-family="Segoe UI, Arial" font-size="22" font-weight="700">Low-level: Hybrid + Azure Arc</text>
<text x="58" y="98" fill="#94a3b8" font-family="Segoe UI, Arial" font-size="12">Implementation view • identity • network • data • ops</text>
<line x1="400.0" y1="209.0" x2="420.0" y2="209.0" stroke="#60a5fa" stroke-width="2.5" marker-end="url(#arrow)" opacity="0.9"/>
<line x1="780.0" y1="209.0" x2="800.0" y2="209.0" stroke="#60a5fa" stroke-width="2.5" marker-end="url(#arrow)" opacity="0.9"/>
<line x1="980.0" y1="209.0" x2="885.0" y2="419.0" stroke="#60a5fa" stroke-width="2.5" marker-end="url(#arrow)" opacity="0.9"/>
<line x1="980.0" y1="209.0" x2="315.0" y2="419.0" stroke="#60a5fa" stroke-width="2.5" marker-end="url(#arrow)" opacity="0.9"/>
<line x1="590.0" y1="419.0" x2="610.0" y2="419.0" stroke="#60a5fa" stroke-width="2.5" marker-end="url(#arrow)" opacity="0.9"/>
<rect x="40.0" y="124" width="360.0" height="170" rx="16" fill="#0f172a" stroke="#1e293b"/>
<text x="56.0" y="158" fill="#e2e8f0" font-family="Segoe UI, Arial" font-size="16" font-weight="700">On-Prem</text>
<text x="62.0" y="184" fill="#94a3b8" font-family="Segoe UI, Arial" font-size="12">• Servers</text>
<text x="62.0" y="202" fill="#94a3b8" font-family="Segoe UI, Arial" font-size="12">• Kubernetes</text>
<text x="62.0" y="220" fill="#94a3b8" font-family="Segoe UI, Arial" font-size="12">• Legacy apps</text>
<rect x="420.0" y="124" width="360.0" height="170" rx="16" fill="#0f172a" stroke="#1e293b"/>
<text x="436.0" y="158" fill="#e2e8f0" font-family="Segoe UI, Arial" font-size="16" font-weight="700">Connectivity</text>
<text x="442.0" y="184" fill="#94a3b8" font-family="Segoe UI, Arial" font-size="12">• ExpressRoute/VPN</text>
<text x="442.0" y="202" fill="#94a3b8" font-family="Segoe UI, Arial" font-size="12">• Hub routing</text>
<text x="442.0" y="220" fill="#94a3b8" font-family="Segoe UI, Arial" font-size="12">• DNS integration</text>
<rect x="800.0" y="124" width="360.0" height="170" rx="16" fill="#0f172a" stroke="#1e293b"/>
<text x="816.0" y="158" fill="#e2e8f0" font-family="Segoe UI, Arial" font-size="16" font-weight="700">Management</text>
<text x="822.0" y="184" fill="#94a3b8" font-family="Segoe UI, Arial" font-size="12">• Azure Arc</text>
<text x="822.0" y="202" fill="#94a3b8" font-family="Segoe UI, Arial" font-size="12">• Policy + inventory</text>
<text x="822.0" y="220" fill="#94a3b8" font-family="Segoe UI, Arial" font-size="12">• Update Manager</text>
<rect x="40.0" y="334" width="550.0" height="170" rx="16" fill="#0f172a" stroke="#1e293b"/>
<text x="56.0" y="368" fill="#e2e8f0" font-family="Segoe UI, Arial" font-size="16" font-weight="700">Integration</text>
<text x="62.0" y="394" fill="#94a3b8" font-family="Segoe UI, Arial" font-size="12">• APIM</text>
<text x="62.0" y="412" fill="#94a3b8" font-family="Segoe UI, Arial" font-size="12">• Service Bus</text>
<text x="62.0" y="430" fill="#94a3b8" font-family="Segoe UI, Arial" font-size="12">• Logic Apps</text>
<rect x="610.0" y="334" width="550.0" height="170" rx="16" fill="#0f172a" stroke="#1e293b"/>
<text x="626.0" y="368" fill="#e2e8f0" font-family="Segoe UI, Arial" font-size="16" font-weight="700">Ops/Sec</text>
<text x="632.0" y="394" fill="#94a3b8" font-family="Segoe UI, Arial" font-size="12">• Log Analytics/Sentinel</text>
<text x="632.0" y="412" fill="#94a3b8" font-family="Segoe UI, Arial" font-size="12">• Defender for Cloud</text>
<text x="632.0" y="430" fill="#94a3b8" font-family="Segoe UI, Arial" font-size="12">• Runbooks</text>
<text x="40" y="676" fill="#94a3b8" font-family="Segoe UI, Arial" font-size="11">Tip: keep endpoint allowlists and policy rules in version control (don't hardcode in diagrams).</text>
</svg>